<mxfile host="65bd71144e">
    <diagram id="5CNnThHkg7twvhw3NEUH" name="Page-1">
        <mxGraphModel dx="976" dy="1225" grid="1" gridSize="10" guides="1" tooltips="1" connect="1" arrows="1" fold="1" page="1" pageScale="1" pageWidth="850" pageHeight="1100" math="0" shadow="0">
            <root>
                <mxCell id="0"/>
                <mxCell id="1" parent="0"/>
                <mxCell id="2" style="edgeStyle=none;html=1;exitX=0;exitY=1;exitDx=0;exitDy=0;entryX=1;entryY=0;entryDx=0;entryDy=0;endArrow=open;endFill=0;endSize=15;shadow=1;" edge="1" parent="1" source="4" target="7">
                    <mxGeometry relative="1" as="geometry"/>
                </mxCell>
                <mxCell id="31" style="edgeStyle=none;html=1;exitX=1;exitY=1;exitDx=0;exitDy=0;entryX=0;entryY=0;entryDx=25;entryDy=0;entryPerimeter=0;fontSize=21;endArrow=open;endFill=0;endSize=15;shadow=1;" edge="1" parent="1" source="4" target="29">
                    <mxGeometry relative="1" as="geometry"/>
                </mxCell>
                <mxCell id="4" value="z" style="ellipse;whiteSpace=wrap;html=1;aspect=fixed;fillColor=#000000;shadow=1;fontSize=21;" vertex="1" parent="1">
                    <mxGeometry x="130" y="20" width="40" height="40" as="geometry"/>
                </mxCell>
                <mxCell id="5" style="edgeStyle=none;html=1;exitX=1;exitY=1;exitDx=0;exitDy=0;entryX=0;entryY=0;entryDx=25;entryDy=0;endArrow=open;endFill=0;endSize=15;entryPerimeter=0;shadow=1;" edge="1" parent="1" source="7" target="26">
                    <mxGeometry relative="1" as="geometry">
                        <mxPoint x="130" y="140" as="targetPoint"/>
                    </mxGeometry>
                </mxCell>
                <mxCell id="6" style="edgeStyle=none;html=1;exitX=0;exitY=1;exitDx=0;exitDy=0;entryX=0.5;entryY=0;entryDx=0;entryDy=0;endArrow=open;endFill=0;endSize=15;shadow=1;" edge="1" parent="1" source="7" target="11">
                    <mxGeometry relative="1" as="geometry"/>
                </mxCell>
                <mxCell id="7" value="y" style="ellipse;whiteSpace=wrap;html=1;aspect=fixed;fillColor=#a20025;strokeColor=#6F0000;fontColor=#ffffff;shadow=1;fontSize=21;" vertex="1" parent="1">
                    <mxGeometry x="80" y="80" width="40" height="40" as="geometry"/>
                </mxCell>
                <mxCell id="9" style="edgeStyle=none;html=1;exitX=0;exitY=1;exitDx=0;exitDy=0;entryX=0;entryY=0;entryDx=25;entryDy=0;endArrow=open;endFill=0;endSize=15;entryPerimeter=0;shadow=1;" edge="1" parent="1" source="11" target="19">
                    <mxGeometry relative="1" as="geometry">
                        <mxPoint x="40" y="200" as="targetPoint"/>
                    </mxGeometry>
                </mxCell>
                <mxCell id="10" style="edgeStyle=none;html=1;exitX=1;exitY=1;exitDx=0;exitDy=0;entryX=0;entryY=0;entryDx=25;entryDy=0;endArrow=open;endFill=0;endSize=15;entryPerimeter=0;shadow=1;" edge="1" parent="1" source="11" target="23">
                    <mxGeometry relative="1" as="geometry">
                        <mxPoint x="100" y="200" as="targetPoint"/>
                    </mxGeometry>
                </mxCell>
                <mxCell id="11" value="x" style="ellipse;whiteSpace=wrap;html=1;aspect=fixed;fillColor=#a20025;strokeColor=#6F0000;fontColor=#ffffff;shadow=1;fontSize=21;" vertex="1" parent="1">
                    <mxGeometry x="50" y="140" width="40" height="40" as="geometry"/>
                </mxCell>
                <mxCell id="21" value="" style="group;shadow=1;" vertex="1" connectable="0" parent="1">
                    <mxGeometry x="10" y="200" width="50" height="40" as="geometry"/>
                </mxCell>
                <mxCell id="19" value="" style="verticalLabelPosition=bottom;verticalAlign=top;html=1;shape=mxgraph.basic.acute_triangle;dx=0.5;fontSize=41;align=center;fillColor=#008a00;strokeColor=#005700;fontColor=#ffffff;shadow=1;" vertex="1" parent="21">
                    <mxGeometry width="50" height="40" as="geometry"/>
                </mxCell>
                <mxCell id="20" value="a" style="text;html=1;strokeColor=none;fillColor=none;align=center;verticalAlign=middle;whiteSpace=wrap;rounded=0;fontSize=21;shadow=1;" vertex="1" parent="21">
                    <mxGeometry x="5" y="10" width="40" height="30" as="geometry"/>
                </mxCell>
                <mxCell id="22" value="" style="group;shadow=1;" vertex="1" connectable="0" parent="1">
                    <mxGeometry x="80" y="200" width="50" height="40" as="geometry"/>
                </mxCell>
                <mxCell id="23" value="" style="verticalLabelPosition=bottom;verticalAlign=top;html=1;shape=mxgraph.basic.acute_triangle;dx=0.5;fontSize=41;align=center;fillColor=#008a00;strokeColor=#005700;fontColor=#ffffff;shadow=1;" vertex="1" parent="22">
                    <mxGeometry width="50" height="40" as="geometry"/>
                </mxCell>
                <mxCell id="24" value="b" style="text;html=1;strokeColor=none;fillColor=none;align=center;verticalAlign=middle;whiteSpace=wrap;rounded=0;fontSize=21;shadow=1;" vertex="1" parent="22">
                    <mxGeometry x="5" y="10" width="40" height="30" as="geometry"/>
                </mxCell>
                <mxCell id="25" value="" style="group;shadow=1;" vertex="1" connectable="0" parent="1">
                    <mxGeometry x="110" y="140" width="50" height="40" as="geometry"/>
                </mxCell>
                <mxCell id="26" value="" style="verticalLabelPosition=bottom;verticalAlign=top;html=1;shape=mxgraph.basic.acute_triangle;dx=0.5;fontSize=41;align=center;fillColor=#008a00;strokeColor=#005700;fontColor=#ffffff;shadow=1;" vertex="1" parent="25">
                    <mxGeometry width="50" height="40" as="geometry"/>
                </mxCell>
                <mxCell id="27" value="c" style="text;html=1;strokeColor=none;fillColor=none;align=center;verticalAlign=middle;whiteSpace=wrap;rounded=0;fontSize=21;shadow=1;" vertex="1" parent="25">
                    <mxGeometry x="5" y="10" width="40" height="30" as="geometry"/>
                </mxCell>
                <mxCell id="28" value="" style="group;shadow=1;" vertex="1" connectable="0" parent="1">
                    <mxGeometry x="160" y="80" width="50" height="40" as="geometry"/>
                </mxCell>
                <mxCell id="29" value="" style="verticalLabelPosition=bottom;verticalAlign=top;html=1;shape=mxgraph.basic.acute_triangle;dx=0.5;fontSize=41;align=center;fillColor=#008a00;strokeColor=#005700;fontColor=#ffffff;shadow=1;" vertex="1" parent="28">
                    <mxGeometry width="50" height="40" as="geometry"/>
                </mxCell>
                <mxCell id="30" value="d" style="text;html=1;strokeColor=none;fillColor=none;align=center;verticalAlign=middle;whiteSpace=wrap;rounded=0;fontSize=21;shadow=1;" vertex="1" parent="28">
                    <mxGeometry x="5" y="10" width="40" height="30" as="geometry"/>
                </mxCell>
                <mxCell id="32" style="edgeStyle=none;html=1;exitX=0;exitY=1;exitDx=0;exitDy=0;entryX=1;entryY=0;entryDx=0;entryDy=0;endArrow=open;endFill=0;endSize=15;shadow=1;" edge="1" parent="1" source="34" target="37">
                    <mxGeometry relative="1" as="geometry"/>
                </mxCell>
                <mxCell id="33" style="edgeStyle=none;html=1;exitX=1;exitY=1;exitDx=0;exitDy=0;entryX=0;entryY=0;entryDx=25;entryDy=0;entryPerimeter=0;fontSize=21;endArrow=open;endFill=0;endSize=15;shadow=1;" edge="1" parent="1" source="34" target="51">
                    <mxGeometry relative="1" as="geometry"/>
                </mxCell>
                <mxCell id="34" value="z" style="ellipse;whiteSpace=wrap;html=1;aspect=fixed;fillColor=#000000;shadow=1;fontSize=21;" vertex="1" parent="1">
                    <mxGeometry x="330" y="20" width="40" height="40" as="geometry"/>
                </mxCell>
                <mxCell id="56" style="edgeStyle=none;html=1;exitX=1;exitY=1;exitDx=0;exitDy=0;entryX=0.5;entryY=0;entryDx=0;entryDy=0;shadow=1;fontSize=21;endArrow=open;endFill=0;endSize=15;" edge="1" parent="1" source="37" target="40">
                    <mxGeometry relative="1" as="geometry"/>
                </mxCell>
                <mxCell id="57" style="edgeStyle=none;html=1;exitX=0;exitY=1;exitDx=0;exitDy=0;entryX=0;entryY=0;entryDx=25;entryDy=0;entryPerimeter=0;shadow=1;fontSize=21;endArrow=open;endFill=0;endSize=15;" edge="1" parent="1" source="37" target="54">
                    <mxGeometry relative="1" as="geometry"/>
                </mxCell>
                <mxCell id="37" value="x" style="ellipse;whiteSpace=wrap;html=1;aspect=fixed;fillColor=#a20025;strokeColor=#6F0000;fontColor=#ffffff;shadow=1;fontSize=21;" vertex="1" parent="1">
                    <mxGeometry x="280" y="80" width="40" height="40" as="geometry"/>
                </mxCell>
                <mxCell id="38" style="edgeStyle=none;html=1;exitX=0;exitY=1;exitDx=0;exitDy=0;entryX=0;entryY=0;entryDx=25;entryDy=0;endArrow=open;endFill=0;endSize=15;entryPerimeter=0;shadow=1;" edge="1" parent="1" source="40" target="42">
                    <mxGeometry relative="1" as="geometry">
                        <mxPoint x="300" y="200" as="targetPoint"/>
                    </mxGeometry>
                </mxCell>
                <mxCell id="39" style="edgeStyle=none;html=1;exitX=1;exitY=1;exitDx=0;exitDy=0;entryX=0;entryY=0;entryDx=25;entryDy=0;endArrow=open;endFill=0;endSize=15;entryPerimeter=0;shadow=1;" edge="1" parent="1" source="40" target="45">
                    <mxGeometry relative="1" as="geometry">
                        <mxPoint x="360" y="200" as="targetPoint"/>
                    </mxGeometry>
                </mxCell>
                <mxCell id="40" value="y" style="ellipse;whiteSpace=wrap;html=1;aspect=fixed;fillColor=#a20025;strokeColor=#6F0000;fontColor=#ffffff;shadow=1;fontSize=21;" vertex="1" parent="1">
                    <mxGeometry x="310" y="140" width="40" height="40" as="geometry"/>
                </mxCell>
                <mxCell id="41" value="" style="group;shadow=1;" vertex="1" connectable="0" parent="1">
                    <mxGeometry x="270" y="200" width="50" height="40" as="geometry"/>
                </mxCell>
                <mxCell id="42" value="" style="verticalLabelPosition=bottom;verticalAlign=top;html=1;shape=mxgraph.basic.acute_triangle;dx=0.5;fontSize=41;align=center;fillColor=#008a00;strokeColor=#005700;fontColor=#ffffff;shadow=1;" vertex="1" parent="41">
                    <mxGeometry width="50" height="40" as="geometry"/>
                </mxCell>
                <mxCell id="43" value="b" style="text;html=1;strokeColor=none;fillColor=none;align=center;verticalAlign=middle;whiteSpace=wrap;rounded=0;fontSize=21;shadow=1;" vertex="1" parent="41">
                    <mxGeometry x="5" y="10" width="40" height="30" as="geometry"/>
                </mxCell>
                <mxCell id="44" value="" style="group;shadow=1;" vertex="1" connectable="0" parent="1">
                    <mxGeometry x="340" y="200" width="50" height="40" as="geometry"/>
                </mxCell>
                <mxCell id="45" value="" style="verticalLabelPosition=bottom;verticalAlign=top;html=1;shape=mxgraph.basic.acute_triangle;dx=0.5;fontSize=41;align=center;fillColor=#008a00;strokeColor=#005700;fontColor=#ffffff;shadow=1;" vertex="1" parent="44">
                    <mxGeometry width="50" height="40" as="geometry"/>
                </mxCell>
                <mxCell id="46" value="c" style="text;html=1;strokeColor=none;fillColor=none;align=center;verticalAlign=middle;whiteSpace=wrap;rounded=0;fontSize=21;shadow=1;" vertex="1" parent="44">
                    <mxGeometry x="5" y="10" width="40" height="30" as="geometry"/>
                </mxCell>
                <mxCell id="50" value="" style="group;shadow=1;" vertex="1" connectable="0" parent="1">
                    <mxGeometry x="360" y="80" width="50" height="40" as="geometry"/>
                </mxCell>
                <mxCell id="51" value="" style="verticalLabelPosition=bottom;verticalAlign=top;html=1;shape=mxgraph.basic.acute_triangle;dx=0.5;fontSize=41;align=center;fillColor=#008a00;strokeColor=#005700;fontColor=#ffffff;shadow=1;" vertex="1" parent="50">
                    <mxGeometry width="50" height="40" as="geometry"/>
                </mxCell>
                <mxCell id="52" value="d" style="text;html=1;strokeColor=none;fillColor=none;align=center;verticalAlign=middle;whiteSpace=wrap;rounded=0;fontSize=21;shadow=1;" vertex="1" parent="50">
                    <mxGeometry x="5" y="10" width="40" height="30" as="geometry"/>
                </mxCell>
                <mxCell id="53" value="a" style="group;shadow=1;" vertex="1" connectable="0" parent="1">
                    <mxGeometry x="240" y="140" width="50" height="40" as="geometry"/>
                </mxCell>
                <mxCell id="54" value="" style="verticalLabelPosition=bottom;verticalAlign=top;html=1;shape=mxgraph.basic.acute_triangle;dx=0.5;fontSize=41;align=center;fillColor=#008a00;strokeColor=#005700;fontColor=#ffffff;shadow=1;" vertex="1" parent="53">
                    <mxGeometry width="50" height="40" as="geometry"/>
                </mxCell>
                <mxCell id="55" value="a" style="text;html=1;strokeColor=none;fillColor=none;align=center;verticalAlign=middle;whiteSpace=wrap;rounded=0;fontSize=21;shadow=1;" vertex="1" parent="53">
                    <mxGeometry x="5" y="10" width="40" height="30" as="geometry"/>
                </mxCell>
                <mxCell id="58" style="edgeStyle=none;html=1;exitX=0;exitY=1;exitDx=0;exitDy=0;entryX=0;entryY=0;entryDx=25;entryDy=0;endArrow=open;endFill=0;endSize=15;shadow=1;entryPerimeter=0;" edge="1" parent="1" source="60" target="77">
                    <mxGeometry relative="1" as="geometry">
                        <mxPoint x="474.14213562373106" y="85.85786437626894" as="targetPoint"/>
                    </mxGeometry>
                </mxCell>
                <mxCell id="59" style="edgeStyle=none;html=1;exitX=1;exitY=1;exitDx=0;exitDy=0;entryX=0.5;entryY=0;entryDx=0;entryDy=0;fontSize=21;endArrow=open;endFill=0;endSize=15;shadow=1;" edge="1" parent="1" source="60" target="79">
                    <mxGeometry relative="1" as="geometry">
                        <mxPoint x="545" y="80" as="targetPoint"/>
                    </mxGeometry>
                </mxCell>
                <mxCell id="60" value="x" style="ellipse;whiteSpace=wrap;html=1;aspect=fixed;fillColor=#000000;shadow=1;fontSize=21;" vertex="1" parent="1">
                    <mxGeometry x="490" y="20" width="40" height="40" as="geometry"/>
                </mxCell>
                <mxCell id="64" style="edgeStyle=none;html=1;exitX=0;exitY=1;exitDx=0;exitDy=0;entryX=0;entryY=0;entryDx=25;entryDy=0;endArrow=open;endFill=0;endSize=15;entryPerimeter=0;shadow=1;" edge="1" parent="1" source="66" target="68">
                    <mxGeometry relative="1" as="geometry">
                        <mxPoint x="480" y="200" as="targetPoint"/>
                    </mxGeometry>
                </mxCell>
                <mxCell id="65" style="edgeStyle=none;html=1;exitX=1;exitY=1;exitDx=0;exitDy=0;entryX=0;entryY=0;entryDx=25;entryDy=0;endArrow=open;endFill=0;endSize=15;entryPerimeter=0;shadow=1;" edge="1" parent="1" source="66" target="71">
                    <mxGeometry relative="1" as="geometry">
                        <mxPoint x="540" y="200" as="targetPoint"/>
                    </mxGeometry>
                </mxCell>
                <mxCell id="66" value="y" style="ellipse;whiteSpace=wrap;html=1;aspect=fixed;fillColor=#a20025;strokeColor=#6F0000;fontColor=#ffffff;shadow=1;fontSize=21;" vertex="1" parent="1">
                    <mxGeometry x="490" y="140" width="40" height="40" as="geometry"/>
                </mxCell>
                <mxCell id="67" value="" style="group;shadow=1;" vertex="1" connectable="0" parent="1">
                    <mxGeometry x="450" y="200" width="50" height="40" as="geometry"/>
                </mxCell>
                <mxCell id="68" value="" style="verticalLabelPosition=bottom;verticalAlign=top;html=1;shape=mxgraph.basic.acute_triangle;dx=0.5;fontSize=41;align=center;fillColor=#008a00;strokeColor=#005700;fontColor=#ffffff;shadow=1;" vertex="1" parent="67">
                    <mxGeometry width="50" height="40" as="geometry"/>
                </mxCell>
                <mxCell id="69" value="b" style="text;html=1;strokeColor=none;fillColor=none;align=center;verticalAlign=middle;whiteSpace=wrap;rounded=0;fontSize=21;shadow=1;" vertex="1" parent="67">
                    <mxGeometry x="5" y="10" width="40" height="30" as="geometry"/>
                </mxCell>
                <mxCell id="70" value="" style="group;shadow=1;" vertex="1" connectable="0" parent="1">
                    <mxGeometry x="520" y="200" width="50" height="40" as="geometry"/>
                </mxCell>
                <mxCell id="71" value="" style="verticalLabelPosition=bottom;verticalAlign=top;html=1;shape=mxgraph.basic.acute_triangle;dx=0.5;fontSize=41;align=center;fillColor=#008a00;strokeColor=#005700;fontColor=#ffffff;shadow=1;" vertex="1" parent="70">
                    <mxGeometry width="50" height="40" as="geometry"/>
                </mxCell>
                <mxCell id="72" value="c" style="text;html=1;strokeColor=none;fillColor=none;align=center;verticalAlign=middle;whiteSpace=wrap;rounded=0;fontSize=21;shadow=1;" vertex="1" parent="70">
                    <mxGeometry x="5" y="10" width="40" height="30" as="geometry"/>
                </mxCell>
                <mxCell id="76" value="a" style="group;shadow=1;" vertex="1" connectable="0" parent="1">
                    <mxGeometry x="450" y="80" width="50" height="40" as="geometry"/>
                </mxCell>
                <mxCell id="77" value="" style="verticalLabelPosition=bottom;verticalAlign=top;html=1;shape=mxgraph.basic.acute_triangle;dx=0.5;fontSize=41;align=center;fillColor=#008a00;strokeColor=#005700;fontColor=#ffffff;shadow=1;" vertex="1" parent="76">
                    <mxGeometry width="50" height="40" as="geometry"/>
                </mxCell>
                <mxCell id="78" value="a" style="text;html=1;strokeColor=none;fillColor=none;align=center;verticalAlign=middle;whiteSpace=wrap;rounded=0;fontSize=21;shadow=1;" vertex="1" parent="76">
                    <mxGeometry x="5" y="10" width="40" height="30" as="geometry"/>
                </mxCell>
                <mxCell id="80" style="edgeStyle=none;html=1;exitX=0;exitY=1;exitDx=0;exitDy=0;entryX=0.5;entryY=0;entryDx=0;entryDy=0;shadow=1;fontSize=21;endArrow=open;endFill=0;endSize=15;" edge="1" parent="1" source="79" target="66">
                    <mxGeometry relative="1" as="geometry"/>
                </mxCell>
                <mxCell id="84" style="edgeStyle=none;html=1;exitX=1;exitY=1;exitDx=0;exitDy=0;entryX=0;entryY=0;entryDx=25;entryDy=0;entryPerimeter=0;shadow=1;fontSize=21;endArrow=open;endFill=0;endSize=15;" edge="1" parent="1" source="79" target="82">
                    <mxGeometry relative="1" as="geometry"/>
                </mxCell>
                <mxCell id="79" value="z" style="ellipse;whiteSpace=wrap;html=1;aspect=fixed;fillColor=#a20025;strokeColor=#6F0000;fontColor=#ffffff;shadow=1;fontSize=21;" vertex="1" parent="1">
                    <mxGeometry x="530" y="80" width="40" height="40" as="geometry"/>
                </mxCell>
                <mxCell id="81" value="d" style="group;shadow=1;" vertex="1" connectable="0" parent="1">
                    <mxGeometry x="560" y="140" width="50" height="40" as="geometry"/>
                </mxCell>
                <mxCell id="82" value="" style="verticalLabelPosition=bottom;verticalAlign=top;html=1;shape=mxgraph.basic.acute_triangle;dx=0.5;fontSize=41;align=center;fillColor=#008a00;strokeColor=#005700;fontColor=#ffffff;shadow=1;" vertex="1" parent="81">
                    <mxGeometry width="50" height="40" as="geometry"/>
                </mxCell>
                <mxCell id="83" value="d" style="text;html=1;strokeColor=none;fillColor=none;align=center;verticalAlign=middle;whiteSpace=wrap;rounded=0;fontSize=21;shadow=1;" vertex="1" parent="81">
                    <mxGeometry x="5" y="10" width="40" height="30" as="geometry"/>
                </mxCell>
                <mxCell id="85" style="edgeStyle=none;html=1;exitX=0;exitY=1;exitDx=0;exitDy=0;entryX=0;entryY=0;entryDx=25;entryDy=0;endArrow=open;endFill=0;endSize=15;shadow=1;entryPerimeter=0;" edge="1" parent="1" source="87" target="98">
                    <mxGeometry relative="1" as="geometry">
                        <mxPoint x="654.1421356237311" y="85.85786437626894" as="targetPoint"/>
                    </mxGeometry>
                </mxCell>
                <mxCell id="86" style="edgeStyle=none;html=1;exitX=1;exitY=1;exitDx=0;exitDy=0;entryX=0.5;entryY=0;entryDx=0;entryDy=0;fontSize=21;endArrow=open;endFill=0;endSize=15;shadow=1;" edge="1" parent="1" source="87" target="102">
                    <mxGeometry relative="1" as="geometry">
                        <mxPoint x="725" y="80" as="targetPoint"/>
                    </mxGeometry>
                </mxCell>
                <mxCell id="87" value="x" style="ellipse;whiteSpace=wrap;html=1;aspect=fixed;fillColor=#000000;shadow=1;fontSize=21;" vertex="1" parent="1">
                    <mxGeometry x="670" y="20" width="40" height="40" as="geometry"/>
                </mxCell>
                <mxCell id="88" style="edgeStyle=none;html=1;exitX=0;exitY=1;exitDx=0;exitDy=0;entryX=0;entryY=0;entryDx=25;entryDy=0;endArrow=open;endFill=0;endSize=15;entryPerimeter=0;shadow=1;" edge="1" parent="1" source="90" target="92">
                    <mxGeometry relative="1" as="geometry">
                        <mxPoint x="740" y="200" as="targetPoint"/>
                    </mxGeometry>
                </mxCell>
                <mxCell id="89" style="edgeStyle=none;html=1;exitX=1;exitY=1;exitDx=0;exitDy=0;entryX=0;entryY=0;entryDx=25;entryDy=0;endArrow=open;endFill=0;endSize=15;entryPerimeter=0;shadow=1;" edge="1" parent="1" source="90" target="95">
                    <mxGeometry relative="1" as="geometry">
                        <mxPoint x="800" y="200" as="targetPoint"/>
                    </mxGeometry>
                </mxCell>
                <mxCell id="90" value="z" style="ellipse;whiteSpace=wrap;html=1;aspect=fixed;fillColor=#a20025;strokeColor=#6F0000;fontColor=#ffffff;shadow=1;fontSize=21;" vertex="1" parent="1">
                    <mxGeometry x="750" y="140" width="40" height="40" as="geometry"/>
                </mxCell>
                <mxCell id="91" value="" style="group;shadow=1;" vertex="1" connectable="0" parent="1">
                    <mxGeometry x="710" y="200" width="50" height="40" as="geometry"/>
                </mxCell>
                <mxCell id="92" value="" style="verticalLabelPosition=bottom;verticalAlign=top;html=1;shape=mxgraph.basic.acute_triangle;dx=0.5;fontSize=41;align=center;fillColor=#008a00;strokeColor=#005700;fontColor=#ffffff;shadow=1;" vertex="1" parent="91">
                    <mxGeometry width="50" height="40" as="geometry"/>
                </mxCell>
                <mxCell id="93" value="c" style="text;html=1;strokeColor=none;fillColor=none;align=center;verticalAlign=middle;whiteSpace=wrap;rounded=0;fontSize=21;shadow=1;" vertex="1" parent="91">
                    <mxGeometry x="5" y="10" width="40" height="30" as="geometry"/>
                </mxCell>
                <mxCell id="94" value="" style="group;shadow=1;" vertex="1" connectable="0" parent="1">
                    <mxGeometry x="780" y="200" width="50" height="40" as="geometry"/>
                </mxCell>
                <mxCell id="95" value="" style="verticalLabelPosition=bottom;verticalAlign=top;html=1;shape=mxgraph.basic.acute_triangle;dx=0.5;fontSize=41;align=center;fillColor=#008a00;strokeColor=#005700;fontColor=#ffffff;shadow=1;" vertex="1" parent="94">
                    <mxGeometry width="50" height="40" as="geometry"/>
                </mxCell>
                <mxCell id="96" value="d" style="text;html=1;strokeColor=none;fillColor=none;align=center;verticalAlign=middle;whiteSpace=wrap;rounded=0;fontSize=21;shadow=1;" vertex="1" parent="94">
                    <mxGeometry x="5" y="10" width="40" height="30" as="geometry"/>
                </mxCell>
                <mxCell id="97" value="a" style="group;shadow=1;" vertex="1" connectable="0" parent="1">
                    <mxGeometry x="630" y="80" width="50" height="40" as="geometry"/>
                </mxCell>
                <mxCell id="98" value="" style="verticalLabelPosition=bottom;verticalAlign=top;html=1;shape=mxgraph.basic.acute_triangle;dx=0.5;fontSize=41;align=center;fillColor=#008a00;strokeColor=#005700;fontColor=#ffffff;shadow=1;" vertex="1" parent="97">
                    <mxGeometry width="50" height="40" as="geometry"/>
                </mxCell>
                <mxCell id="99" value="a" style="text;html=1;strokeColor=none;fillColor=none;align=center;verticalAlign=middle;whiteSpace=wrap;rounded=0;fontSize=21;shadow=1;" vertex="1" parent="97">
                    <mxGeometry x="5" y="10" width="40" height="30" as="geometry"/>
                </mxCell>
                <mxCell id="106" style="edgeStyle=none;html=1;exitX=1;exitY=1;exitDx=0;exitDy=0;entryX=0.5;entryY=0;entryDx=0;entryDy=0;shadow=1;fontSize=21;endArrow=open;endFill=0;endSize=15;" edge="1" parent="1" source="102" target="90">
                    <mxGeometry relative="1" as="geometry"/>
                </mxCell>
                <mxCell id="110" style="edgeStyle=none;html=1;exitX=0;exitY=1;exitDx=0;exitDy=0;entryX=0;entryY=0;entryDx=25;entryDy=0;entryPerimeter=0;shadow=1;fontSize=21;endArrow=open;endFill=0;endSize=15;" edge="1" parent="1" source="102" target="108">
                    <mxGeometry relative="1" as="geometry"/>
                </mxCell>
                <mxCell id="102" value="y" style="ellipse;whiteSpace=wrap;html=1;aspect=fixed;fillColor=#a20025;strokeColor=#6F0000;fontColor=#ffffff;shadow=1;fontSize=21;" vertex="1" parent="1">
                    <mxGeometry x="710" y="80" width="40" height="40" as="geometry"/>
                </mxCell>
                <mxCell id="107" value="" style="group;shadow=1;" vertex="1" connectable="0" parent="1">
                    <mxGeometry x="670" y="140" width="50" height="40" as="geometry"/>
                </mxCell>
                <mxCell id="108" value="" style="verticalLabelPosition=bottom;verticalAlign=top;html=1;shape=mxgraph.basic.acute_triangle;dx=0.5;fontSize=41;align=center;fillColor=#008a00;strokeColor=#005700;fontColor=#ffffff;shadow=1;" vertex="1" parent="107">
                    <mxGeometry width="50" height="40" as="geometry"/>
                </mxCell>
                <mxCell id="109" value="b" style="text;html=1;strokeColor=none;fillColor=none;align=center;verticalAlign=middle;whiteSpace=wrap;rounded=0;fontSize=21;shadow=1;" vertex="1" parent="107">
                    <mxGeometry x="5" y="10" width="40" height="30" as="geometry"/>
                </mxCell>
                <mxCell id="114" style="edgeStyle=none;html=1;exitX=0;exitY=1;exitDx=0;exitDy=0;entryX=1;entryY=0;entryDx=0;entryDy=0;shadow=1;fontSize=21;endArrow=open;endFill=0;endSize=15;" edge="1" parent="1" source="111" target="112">
                    <mxGeometry relative="1" as="geometry"/>
                </mxCell>
                <mxCell id="115" style="edgeStyle=none;html=1;exitX=1;exitY=1;exitDx=0;exitDy=0;entryX=0;entryY=0;entryDx=0;entryDy=0;shadow=1;fontSize=21;endArrow=open;endFill=0;endSize=15;" edge="1" parent="1" source="111" target="113">
                    <mxGeometry relative="1" as="geometry"/>
                </mxCell>
                <mxCell id="111" value="y" style="ellipse;whiteSpace=wrap;html=1;aspect=fixed;fillColor=#a20025;strokeColor=#6F0000;fontColor=#ffffff;shadow=1;fontSize=21;" vertex="1" parent="1">
                    <mxGeometry x="405" y="330" width="40" height="40" as="geometry"/>
                </mxCell>
                <mxCell id="130" style="edgeStyle=none;html=1;exitX=1;exitY=1;exitDx=0;exitDy=0;entryX=0;entryY=0;entryDx=25;entryDy=0;entryPerimeter=0;shadow=1;fontSize=21;endArrow=open;endFill=0;endSize=15;" edge="1" parent="1" source="112" target="120">
                    <mxGeometry relative="1" as="geometry"/>
                </mxCell>
                <mxCell id="131" style="edgeStyle=none;html=1;exitX=0;exitY=1;exitDx=0;exitDy=0;entryX=0;entryY=0;entryDx=25;entryDy=0;entryPerimeter=0;shadow=1;fontSize=21;endArrow=open;endFill=0;endSize=15;" edge="1" parent="1" source="112" target="117">
                    <mxGeometry relative="1" as="geometry"/>
                </mxCell>
                <mxCell id="112" value="x" style="ellipse;whiteSpace=wrap;html=1;aspect=fixed;fillColor=#000000;shadow=1;fontSize=21;" vertex="1" parent="1">
                    <mxGeometry x="335" y="390" width="40" height="40" as="geometry"/>
                </mxCell>
                <mxCell id="128" style="edgeStyle=none;html=1;exitX=0;exitY=1;exitDx=0;exitDy=0;entryX=0;entryY=0;entryDx=25;entryDy=0;entryPerimeter=0;shadow=1;fontSize=21;endArrow=open;endFill=0;endSize=15;" edge="1" parent="1" source="113" target="123">
                    <mxGeometry relative="1" as="geometry"/>
                </mxCell>
                <mxCell id="129" style="edgeStyle=none;html=1;exitX=1;exitY=1;exitDx=0;exitDy=0;entryX=0;entryY=0;entryDx=25;entryDy=0;entryPerimeter=0;shadow=1;fontSize=21;endArrow=open;endFill=0;endSize=15;" edge="1" parent="1" source="113" target="126">
                    <mxGeometry relative="1" as="geometry"/>
                </mxCell>
                <mxCell id="113" value="z" style="ellipse;whiteSpace=wrap;html=1;aspect=fixed;fillColor=#000000;shadow=1;fontSize=21;" vertex="1" parent="1">
                    <mxGeometry x="475" y="390" width="40" height="40" as="geometry"/>
                </mxCell>
                <mxCell id="116" value="" style="group;shadow=1;" vertex="1" connectable="0" parent="1">
                    <mxGeometry x="295" y="450" width="50" height="40" as="geometry"/>
                </mxCell>
                <mxCell id="117" value="" style="verticalLabelPosition=bottom;verticalAlign=top;html=1;shape=mxgraph.basic.acute_triangle;dx=0.5;fontSize=41;align=center;fillColor=#008a00;strokeColor=#005700;fontColor=#ffffff;shadow=1;" vertex="1" parent="116">
                    <mxGeometry width="50" height="40" as="geometry"/>
                </mxCell>
                <mxCell id="118" value="a" style="text;html=1;strokeColor=none;fillColor=none;align=center;verticalAlign=middle;whiteSpace=wrap;rounded=0;fontSize=21;shadow=1;" vertex="1" parent="116">
                    <mxGeometry x="5" y="10" width="40" height="30" as="geometry"/>
                </mxCell>
                <mxCell id="119" value="" style="group;shadow=1;" vertex="1" connectable="0" parent="1">
                    <mxGeometry x="365" y="450" width="50" height="40" as="geometry"/>
                </mxCell>
                <mxCell id="120" value="" style="verticalLabelPosition=bottom;verticalAlign=top;html=1;shape=mxgraph.basic.acute_triangle;dx=0.5;fontSize=41;align=center;fillColor=#008a00;strokeColor=#005700;fontColor=#ffffff;shadow=1;" vertex="1" parent="119">
                    <mxGeometry width="50" height="40" as="geometry"/>
                </mxCell>
                <mxCell id="121" value="b" style="text;html=1;strokeColor=none;fillColor=none;align=center;verticalAlign=middle;whiteSpace=wrap;rounded=0;fontSize=21;shadow=1;" vertex="1" parent="119">
                    <mxGeometry x="5" y="10" width="40" height="30" as="geometry"/>
                </mxCell>
                <mxCell id="122" value="" style="group;shadow=1;" vertex="1" connectable="0" parent="1">
                    <mxGeometry x="435" y="450" width="50" height="40" as="geometry"/>
                </mxCell>
                <mxCell id="123" value="" style="verticalLabelPosition=bottom;verticalAlign=top;html=1;shape=mxgraph.basic.acute_triangle;dx=0.5;fontSize=41;align=center;fillColor=#008a00;strokeColor=#005700;fontColor=#ffffff;shadow=1;" vertex="1" parent="122">
                    <mxGeometry width="50" height="40" as="geometry"/>
                </mxCell>
                <mxCell id="124" value="c" style="text;html=1;strokeColor=none;fillColor=none;align=center;verticalAlign=middle;whiteSpace=wrap;rounded=0;fontSize=21;shadow=1;" vertex="1" parent="122">
                    <mxGeometry x="5" y="10" width="40" height="30" as="geometry"/>
                </mxCell>
                <mxCell id="125" value="" style="group;shadow=1;" vertex="1" connectable="0" parent="1">
                    <mxGeometry x="505" y="450" width="50" height="40" as="geometry"/>
                </mxCell>
                <mxCell id="126" value="" style="verticalLabelPosition=bottom;verticalAlign=top;html=1;shape=mxgraph.basic.acute_triangle;dx=0.5;fontSize=41;align=center;fillColor=#008a00;strokeColor=#005700;fontColor=#ffffff;shadow=1;" vertex="1" parent="125">
                    <mxGeometry width="50" height="40" as="geometry"/>
                </mxCell>
                <mxCell id="127" value="d" style="text;html=1;strokeColor=none;fillColor=none;align=center;verticalAlign=middle;whiteSpace=wrap;rounded=0;fontSize=21;shadow=1;" vertex="1" parent="125">
                    <mxGeometry x="5" y="10" width="40" height="30" as="geometry"/>
                </mxCell>
                <mxCell id="132" value="balance" style="edgeStyle=none;html=1;shadow=1;fontSize=21;endArrow=open;endFill=0;endSize=28;" edge="1" parent="1">
                    <mxGeometry relative="1" as="geometry">
                        <mxPoint x="150" y="270" as="sourcePoint"/>
                        <mxPoint x="310" y="390" as="targetPoint"/>
                    </mxGeometry>
                </mxCell>
                <mxCell id="133" value="balance" style="edgeStyle=none;html=1;shadow=1;fontSize=21;endArrow=open;endFill=0;endSize=28;" edge="1" parent="1">
                    <mxGeometry x="-0.3448" y="7" relative="1" as="geometry">
                        <mxPoint x="330" y="260" as="sourcePoint"/>
                        <mxPoint x="370" y="360" as="targetPoint"/>
                        <mxPoint x="1" as="offset"/>
                    </mxGeometry>
                </mxCell>
                <mxCell id="134" value="balance" style="edgeStyle=none;html=1;shadow=1;fontSize=21;endArrow=open;endFill=0;endSize=28;" edge="1" parent="1">
                    <mxGeometry x="-0.3448" y="-7" relative="1" as="geometry">
                        <mxPoint x="510" y="260" as="sourcePoint"/>
                        <mxPoint x="470" y="360" as="targetPoint"/>
                        <mxPoint x="-1" as="offset"/>
                    </mxGeometry>
                </mxCell>
                <mxCell id="135" value="balance" style="edgeStyle=none;html=1;shadow=1;fontSize=21;endArrow=open;endFill=0;endSize=28;" edge="1" parent="1">
                    <mxGeometry relative="1" as="geometry">
                        <mxPoint x="700" y="270" as="sourcePoint"/>
                        <mxPoint x="550" y="390" as="targetPoint"/>
                    </mxGeometry>
                </mxCell>
                <mxCell id="136" style="edgeStyle=none;html=1;exitX=0;exitY=1;exitDx=0;exitDy=0;entryX=1;entryY=0;entryDx=0;entryDy=0;shadow=1;fontSize=21;endArrow=open;endFill=0;endSize=15;" edge="1" parent="1" source="138" target="141">
                    <mxGeometry relative="1" as="geometry"/>
                </mxCell>
                <mxCell id="137" style="edgeStyle=none;html=1;exitX=1;exitY=1;exitDx=0;exitDy=0;entryX=0;entryY=0;entryDx=0;entryDy=0;shadow=1;fontSize=21;endArrow=open;endFill=0;endSize=15;" edge="1" parent="1" source="138" target="144">
                    <mxGeometry relative="1" as="geometry"/>
                </mxCell>
                <mxCell id="138" value="y" style="ellipse;whiteSpace=wrap;html=1;aspect=fixed;shadow=1;fontSize=21;fillColor=#000000;" vertex="1" parent="1">
                    <mxGeometry x="405" y="590" width="40" height="40" as="geometry"/>
                </mxCell>
                <mxCell id="139" style="edgeStyle=none;html=1;exitX=1;exitY=1;exitDx=0;exitDy=0;entryX=0;entryY=0;entryDx=25;entryDy=0;entryPerimeter=0;shadow=1;fontSize=21;endArrow=open;endFill=0;endSize=15;" edge="1" parent="1" source="141" target="149">
                    <mxGeometry relative="1" as="geometry"/>
                </mxCell>
                <mxCell id="140" style="edgeStyle=none;html=1;exitX=0;exitY=1;exitDx=0;exitDy=0;entryX=0;entryY=0;entryDx=25;entryDy=0;entryPerimeter=0;shadow=1;fontSize=21;endArrow=open;endFill=0;endSize=15;" edge="1" parent="1" source="141" target="146">
                    <mxGeometry relative="1" as="geometry"/>
                </mxCell>
                <mxCell id="141" value="x" style="ellipse;whiteSpace=wrap;html=1;aspect=fixed;fillColor=#000000;shadow=1;fontSize=21;" vertex="1" parent="1">
                    <mxGeometry x="335" y="650" width="40" height="40" as="geometry"/>
                </mxCell>
                <mxCell id="142" style="edgeStyle=none;html=1;exitX=0;exitY=1;exitDx=0;exitDy=0;entryX=0;entryY=0;entryDx=25;entryDy=0;entryPerimeter=0;shadow=1;fontSize=21;endArrow=open;endFill=0;endSize=15;" edge="1" parent="1" source="144" target="152">
                    <mxGeometry relative="1" as="geometry"/>
                </mxCell>
                <mxCell id="143" style="edgeStyle=none;html=1;exitX=1;exitY=1;exitDx=0;exitDy=0;entryX=0;entryY=0;entryDx=25;entryDy=0;entryPerimeter=0;shadow=1;fontSize=21;endArrow=open;endFill=0;endSize=15;" edge="1" parent="1" source="144" target="155">
                    <mxGeometry relative="1" as="geometry"/>
                </mxCell>
                <mxCell id="144" value="z" style="ellipse;whiteSpace=wrap;html=1;aspect=fixed;fillColor=#000000;shadow=1;fontSize=21;" vertex="1" parent="1">
                    <mxGeometry x="475" y="650" width="40" height="40" as="geometry"/>
                </mxCell>
                <mxCell id="145" value="" style="group;shadow=1;" vertex="1" connectable="0" parent="1">
                    <mxGeometry x="295" y="710" width="50" height="40" as="geometry"/>
                </mxCell>
                <mxCell id="146" value="" style="verticalLabelPosition=bottom;verticalAlign=top;html=1;shape=mxgraph.basic.acute_triangle;dx=0.5;fontSize=41;align=center;fillColor=#008a00;strokeColor=#005700;fontColor=#ffffff;shadow=1;" vertex="1" parent="145">
                    <mxGeometry width="50" height="40" as="geometry"/>
                </mxCell>
                <mxCell id="147" value="a" style="text;html=1;strokeColor=none;fillColor=none;align=center;verticalAlign=middle;whiteSpace=wrap;rounded=0;fontSize=21;shadow=1;" vertex="1" parent="145">
                    <mxGeometry x="5" y="10" width="40" height="30" as="geometry"/>
                </mxCell>
                <mxCell id="148" value="" style="group;shadow=1;" vertex="1" connectable="0" parent="1">
                    <mxGeometry x="365" y="710" width="50" height="40" as="geometry"/>
                </mxCell>
                <mxCell id="149" value="" style="verticalLabelPosition=bottom;verticalAlign=top;html=1;shape=mxgraph.basic.acute_triangle;dx=0.5;fontSize=41;align=center;fillColor=#008a00;strokeColor=#005700;fontColor=#ffffff;shadow=1;" vertex="1" parent="148">
                    <mxGeometry width="50" height="40" as="geometry"/>
                </mxCell>
                <mxCell id="150" value="b" style="text;html=1;strokeColor=none;fillColor=none;align=center;verticalAlign=middle;whiteSpace=wrap;rounded=0;fontSize=21;shadow=1;" vertex="1" parent="148">
                    <mxGeometry x="5" y="10" width="40" height="30" as="geometry"/>
                </mxCell>
                <mxCell id="151" value="" style="group;shadow=1;" vertex="1" connectable="0" parent="1">
                    <mxGeometry x="435" y="710" width="50" height="40" as="geometry"/>
                </mxCell>
                <mxCell id="152" value="" style="verticalLabelPosition=bottom;verticalAlign=top;html=1;shape=mxgraph.basic.acute_triangle;dx=0.5;fontSize=41;align=center;fillColor=#008a00;strokeColor=#005700;fontColor=#ffffff;shadow=1;" vertex="1" parent="151">
                    <mxGeometry width="50" height="40" as="geometry"/>
                </mxCell>
                <mxCell id="153" value="c" style="text;html=1;strokeColor=none;fillColor=none;align=center;verticalAlign=middle;whiteSpace=wrap;rounded=0;fontSize=21;shadow=1;" vertex="1" parent="151">
                    <mxGeometry x="5" y="10" width="40" height="30" as="geometry"/>
                </mxCell>
                <mxCell id="154" value="" style="group;shadow=1;" vertex="1" connectable="0" parent="1">
                    <mxGeometry x="505" y="710" width="50" height="40" as="geometry"/>
                </mxCell>
                <mxCell id="155" value="" style="verticalLabelPosition=bottom;verticalAlign=top;html=1;shape=mxgraph.basic.acute_triangle;dx=0.5;fontSize=41;align=center;fillColor=#008a00;strokeColor=#005700;fontColor=#ffffff;shadow=1;" vertex="1" parent="154">
                    <mxGeometry width="50" height="40" as="geometry"/>
                </mxCell>
                <mxCell id="156" value="d" style="text;html=1;strokeColor=none;fillColor=none;align=center;verticalAlign=middle;whiteSpace=wrap;rounded=0;fontSize=21;shadow=1;" vertex="1" parent="154">
                    <mxGeometry x="5" y="10" width="40" height="30" as="geometry"/>
                </mxCell>
                <mxCell id="157" style="edgeStyle=none;html=1;shadow=1;fontSize=21;endArrow=open;endFill=0;endSize=28;" edge="1" parent="1">
                    <mxGeometry relative="1" as="geometry">
                        <mxPoint x="420" y="510" as="sourcePoint"/>
                        <mxPoint x="420" y="570" as="targetPoint"/>
                    </mxGeometry>
                </mxCell>
                <mxCell id="158" value="blacken" style="text;html=1;strokeColor=none;fillColor=none;align=center;verticalAlign=middle;whiteSpace=wrap;rounded=0;shadow=1;fontSize=21;" vertex="1" parent="1">
                    <mxGeometry x="440" y="530" width="80" height="20" as="geometry"/>
                </mxCell>
            </root>
        </mxGraphModel>
    </diagram>
</mxfile>